<?xml version="1.0" encoding="UTF-8"?>
<svg width="36px" height="36px" viewBox="0 0 36 36" version="1.1" xmlns="http://www.w3.org/2000/svg" xmlns:xlink="http://www.w3.org/1999/xlink">
    <title>notes</title>
    <g id="Website" stroke="none" stroke-width="1" fill="none" fill-rule="evenodd">
        <g id="Homepage-Detail" transform="translate(-622.000000, -688.000000)">
            <g id="Hero" transform="translate(133.000000, 166.000000)">
                <g id="Card" transform="translate(449.000000, 22.000000)">
                    <g id="Group-8" transform="translate(40.000000, 378.000000)">
                        <g id="notes" transform="translate(0.000000, 122.000000)">
                            <path d="M15.055223,-5.61235357e-16 L20.944777,5.61235357e-16 C25.9001836,-3.49058064e-16 27.9055187,0.556953667 29.8610742,1.60279622 C31.8166298,2.64863878 33.3513612,4.18337022 34.3972038,6.13892578 C35.4430463,8.09448133 36,10.0998164 36,15.055223 L36,20.944777 C36,25.9001836 35.4430463,27.9055187 34.3972038,29.8610742 C33.3513612,31.8166298 31.8166298,33.3513612 29.8610742,34.3972038 C27.9055187,35.4430463 25.9001836,36 20.944777,36 L15.055223,36 C10.0998164,36 8.09448133,35.4430463 6.13892578,34.3972038 C4.18337022,33.3513612 2.64863878,31.8166298 1.60279622,29.8610742 C0.556953667,27.9055187 2.32705376e-16,25.9001836 -3.74156905e-16,20.944777 L3.74156905e-16,15.055223 C-2.32705376e-16,10.0998164 0.556953667,8.09448133 1.60279622,6.13892578 C2.64863878,4.18337022 4.18337022,2.64863878 6.13892578,1.60279622 C8.09448133,0.556953667 10.0998164,3.49058064e-16 15.055223,-5.61235357e-16 Z" id="Rectangle" fill="#FFBD01"></path>
                            <g id="bookmark" transform="translate(6.000000, 6.000000)" fill="#FFFFFF" fill-rule="nonzero">
                                <path d="M17.4436667,4 L6.55633333,4 C5.69688889,4 5,4.65163636 5,5.45527273 L5,20 L12,15.6363636 L19,20 L19,5.45527273 C19,4.65163636 18.3031111,4 17.4436667,4 Z" id="Path"></path>
                            </g>
                        </g>
                    </g>
                </g>
            </g>
        </g>
    </g>
</svg>