<?xml version="1.0" encoding="UTF-8"?>
<svg width="72px" height="72px" viewBox="0 0 72 72" version="1.1" xmlns="http://www.w3.org/2000/svg" xmlns:xlink="http://www.w3.org/1999/xlink">
    <title>newsletter</title>
    <g id="Website" stroke="none" stroke-width="1" fill="none" fill-rule="evenodd">
        <g id="Homepage-Newsletter-Empty" transform="translate(-685.000000, -304.000000)">
            <g id="Group-3" transform="translate(445.000000, 244.000000)">
                <g id="newsletter" transform="translate(240.000000, 60.000000)">
                    <path d="M31.4601354,-1.00301061e-15 L40.5398646,1.00301061e-15 C49.8851616,-7.13692605e-16 54.4619571,1.20673294 58.6989941,3.47272515 C62.9360312,5.73871735 66.2612826,9.06396882 68.5272749,13.3010059 C70.7932671,17.5380429 72,22.1148384 72,31.4601354 L72,40.5398646 C72,49.8851616 70.7932671,54.4619571 68.5272749,58.6989941 C66.2612826,62.9360312 62.9360312,66.2612826 58.6989941,68.5272749 C54.4619571,70.7932671 49.8851616,72 40.5398646,72 L31.4601354,72 C22.1148384,72 17.5380429,70.7932671 13.3010059,68.5272749 C9.06396882,66.2612826 5.73871735,62.9360312 3.47272515,58.6989941 C1.20673294,54.4619571 4.7579507e-16,49.8851616 -6.68673738e-16,40.5398646 L6.68673738e-16,31.4601354 C-4.7579507e-16,22.1148384 1.20673294,17.5380429 3.47272515,13.3010059 C5.73871735,9.06396882 9.06396882,5.73871735 13.3010059,3.47272515 C17.5380429,1.20673294 22.1148384,7.13692605e-16 31.4601354,-1.00301061e-15 Z" id="Rectangle" fill="#32C5FF"></path>
                    <g id="mail" transform="translate(11.500000, 11.500000)" fill="#FFFFFF" fill-rule="nonzero">
                        <path d="M24.5,26.49375 C23.5764583,26.49375 22.6529167,26.3025 21.7939583,25.91875 L9,20.20375 L9,34.5 C9,35.88125 10.1560417,37 11.5833333,37 L37.4166667,37 C38.8439583,37 40,35.88125 40,34.5 L40,20.20375 L27.2060417,25.91875 C26.3470833,26.3025 25.4235417,26.49375 24.5,26.49375 Z M37.4166667,12 L11.5833333,12 C10.1560417,12 9,13.11875 9,14.5 L9,17.45 L22.876375,23.6475 C23.9084167,24.1075 25.092875,24.10875 26.1249167,23.6475 L40,17.45 L40,14.5 C40,13.11875 38.8439583,12 37.4166667,12 Z" id="Shape"></path>
                    </g>
                </g>
            </g>
        </g>
    </g>
</svg>