<?xml version="1.0" encoding="UTF-8"?>
<svg width="36px" height="36px" viewBox="0 0 36 36" version="1.1" xmlns="http://www.w3.org/2000/svg" xmlns:xlink="http://www.w3.org/1999/xlink">
    <title>follow</title>
    <g id="Website" stroke="none" stroke-width="1" fill="none" fill-rule="evenodd">
        <g id="Homepage-Detail" transform="translate(-172.000000, -1669.000000)" fill="#DD1F1F">
            <g id="Group-9" transform="translate(132.000000, 594.000000)">
                <g id="Hosts" transform="translate(0.000000, 1041.000000)">
                    <path d="M60.2699323,34 C64.9425808,34 67.2309786,34.6033665 69.3494971,35.7363626 C71.4680156,36.8693587 73.1306413,38.5319844 74.2636374,40.6505029 C75.3966335,42.7690214 76,45.0574192 76,49.7300677 L76,54.2699323 C76,58.9425808 75.3966335,61.2309786 74.2636374,63.3494971 C73.1306413,65.4680156 71.4680156,67.1306413 69.3494971,68.2636374 C67.2309786,69.3966335 64.9425808,70 60.2699323,70 L55.7300677,70 C51.0574192,70 48.7690214,69.3966335 46.6505029,68.2636374 C44.5319844,67.1306413 42.8693587,65.4680156 41.7363626,63.3494971 C40.6033665,61.2309786 40,58.9425808 40,54.2699323 L40,49.7300677 C40,45.0574192 40.6033665,42.7690214 41.7363626,40.6505029 C42.8693587,38.5319844 44.5319844,36.8693587 46.6505029,35.7363626 C48.7690214,34.6033665 51.0574192,34 55.7300677,34 L60.2699323,34 Z M58,47.286 C56.46625,45.75075 55.30525,44.817 53.35075,45.03 C50.69275,45.321 48.61,48.3525 49.06225,51 C49.78675,55.24425 53.52025,57.75 58,60 C62.47975,57.75 66.21325,55.24425 66.93775,51 C67.39,48.3525 65.30725,45.321 62.64925,45.03 C60.69475,44.817 59.45275,45.75075 58,47.286 Z" id="follow"></path>
                </g>
            </g>
        </g>
    </g>
</svg>