<svg width="36" height="36" viewBox="0 0 36 36" fill="none" xmlns="http://www.w3.org/2000/svg">
<path fill-rule="evenodd" clip-rule="evenodd" d="M18 36C27.9411 36 36 27.9411 36 18C36 8.05887 27.9411 0 18 0C8.05887 0 0 8.05887 0 18C0 27.9411 8.05887 36 18 36ZM18 13.286C19.4527 11.7508 20.6947 10.817 22.6493 11.03C25.3073 11.321 27.39 14.3525 26.9378 17C26.2133 21.2443 22.4797 23.75 18 26C13.5203 23.75 9.78675 21.2443 9.06225 17C8.61 14.3525 10.6927 11.321 13.3507 11.03C15.3053 10.817 16.4662 11.7508 18 13.286Z" fill="#E02020"/>
</svg>
