<?xml version="1.0" encoding="UTF-8"?>
<svg width="78px" height="104px" viewBox="0 0 78 104" version="1.1" xmlns="http://www.w3.org/2000/svg" xmlns:xlink="http://www.w3.org/1999/xlink">
    <title>Logo</title>
    <defs>
        <path d="M34.2644897,1 L44.7659084,1 C48.0796169,1 50.7659084,3.6862915 50.7659084,7 C50.7659084,7.26192157 50.7487577,7.52356208 50.7145664,7.78324239 L48.0251043,28.209473 C47.7523599,30.2809434 47.4002243,31.2078534 46.8396663,32.0688346 C46.2791083,32.9298159 45.5280923,33.5884297 44.601303,34.0317982 C43.6745137,34.4751667 42.7095674,34.7032898 40.6202184,34.7032898 L38.4101797,34.7032898 C36.3208307,34.7032898 35.3558844,34.4751667 34.4290951,34.0317982 C33.5023058,33.5884297 32.7512898,32.9298159 32.1907318,32.0688346 C31.6301738,31.2078534 31.2780382,30.2809434 31.0052937,28.209473 L28.3158317,7.78324239 C27.8832589,4.49788933 30.1958942,1.48391488 33.4812473,1.05134205 C33.7409276,1.01715071 34.0025681,1 34.2644897,1 Z" id="path-1"></path>
        <filter x="-6.9%" y="-7.4%" width="113.7%" height="114.8%" filterUnits="objectBoundingBox" id="filter-2">
            <feOffset dx="-5" dy="5" in="SourceAlpha" result="shadowOffsetInner1"></feOffset>
            <feComposite in="shadowOffsetInner1" in2="SourceAlpha" operator="arithmetic" k2="-1" k3="1" result="shadowInnerInner1"></feComposite>
            <feColorMatrix values="0 0 0 0 0   0 0 0 0 0   0 0 0 0 0  0 0 0 0.0975743007 0" type="matrix" in="shadowInnerInner1"></feColorMatrix>
        </filter>
    </defs>
    <g id="Website" stroke="none" stroke-width="1" fill="none" fill-rule="evenodd">
        <g id="Logo" transform="translate(0.000000, 0.989805)">
            <g id="bottom" transform="translate(0.000000, 24.010195)">
                <path d="M30.7666224,-1.24300837e-15 L47.2333776,1.24300837e-15 C57.9316025,-7.22223659e-16 61.8110373,1.11390733 65.7221484,3.20559245 C69.6332596,5.29727756 72.7027224,8.36674045 74.7944076,12.2778516 C76.8860927,16.1889627 78,20.0683975 78,30.7666224 L78,47.2333776 C78,57.9316025 76.8860927,61.8110373 74.7944076,65.7221484 C72.7027224,69.6332596 69.6332596,72.7027224 65.7221484,74.7944076 C61.8110373,76.8860927 57.9316025,78 47.2333776,78 L30.7666224,78 C20.0683975,78 16.1889627,76.8860927 12.2778516,74.7944076 C8.36674045,72.7027224 5.29727756,69.6332596 3.20559245,65.7221484 C1.11390733,61.8110373 4.81482439e-16,57.9316025 -8.28672246e-16,47.2333776 L8.28672246e-16,30.7666224 C-4.81482439e-16,20.0683975 1.11390733,16.1889627 3.20559245,12.2778516 C5.29727756,8.36674045 8.36674045,5.29727756 12.2778516,3.20559245 C16.1889627,1.11390733 20.0683975,7.22223659e-16 30.7666224,-1.24300837e-15 Z" id="Rectangle" fill="#32C5FF"></path>
                <path d="M39.0145389,55.595907 C43.5614139,55.595907 47.0926639,54.549032 49.6082889,52.455282 C51.9676639,50.502157 53.1473514,47.9162195 53.1473514,44.6974695 C53.1473514,42.6505945 52.6004764,40.8537195 51.5067264,39.3068445 C51.1317264,38.9005945 50.7567264,38.5568445 50.3817264,38.2755945 C50.0067264,37.9943445 49.4754764,37.6662195 48.7879764,37.2912195 C48.1004764,36.9005945 47.0223514,36.4787195 45.5536014,36.0255945 C44.7411014,35.7912195 43.6707889,35.5099695 42.3426639,35.1818445 C40.9051639,34.8224695 39.9754764,34.580282 39.5536014,34.455282 C36.5692264,33.986532 35.0770389,33.439657 35.0770389,32.814657 C35.0770389,31.627157 36.0770389,31.0099695 38.0770389,30.9630945 C40.6082889,30.9630945 42.5614139,31.4787195 43.9364139,32.5099695 C45.3114139,33.5412195 46.6317264,34.0568445 47.8973514,34.0568445 C51.3504764,34.0568445 53.0770389,32.7287195 53.0770389,30.0724695 C53.0770389,28.3380945 51.9520389,26.7130945 49.7020389,25.1974695 C47.1395389,23.4630945 43.9520389,22.595907 40.1395389,22.595907 C35.5926639,22.595907 32.0614139,23.5724695 29.5457889,25.5255945 C27.1864139,27.3380945 26.0067264,29.7443445 26.0067264,32.7443445 C26.0067264,34.6037195 26.5457889,36.220907 27.6239139,37.595907 C28.8582889,39.080282 30.8504764,40.267782 33.6004764,41.158407 C34.4129764,41.424032 35.4832889,41.7287195 36.8114139,42.0724695 C38.2489139,42.4630945 39.1786014,42.720907 39.6004764,42.845907 C42.5848514,43.408407 44.0770389,44.0255945 44.0770389,44.6974695 C44.0770389,45.9630945 43.0770389,46.595907 41.0770389,46.595907 C38.5457889,46.595907 36.5926639,46.049032 35.2176639,44.955282 C33.8426639,43.845907 32.5223514,43.2912195 31.2567264,43.2912195 C27.8036014,43.2912195 26.0770389,44.7130945 26.0770389,47.5568445 C26.0770389,49.4318445 27.2020389,51.1818445 29.4520389,52.8068445 C32.0145389,54.6662195 35.2020389,55.595907 39.0145389,55.595907 Z" id="S" fill="#FFFFFF" fill-rule="nonzero"></path>
            </g>
            <g id="pin" transform="translate(39.515199, 17.851645) rotate(-5.000000) translate(-39.515199, -17.851645) ">
                <use fill="#FFE48C" fill-rule="evenodd" xlink:href="#path-1"></use>
                <use fill="black" fill-opacity="1" filter="url(#filter-2)" xlink:href="#path-1"></use>
            </g>
        </g>
    </g>
</svg>