<?xml version="1.0" encoding="UTF-8"?>
<svg width="36px" height="36px" viewBox="0 0 36 36" version="1.1" xmlns="http://www.w3.org/2000/svg" xmlns:xlink="http://www.w3.org/1999/xlink">
    <title>blog</title>
    <g id="Website" stroke="none" stroke-width="1" fill="none" fill-rule="evenodd">
        <g id="Blog" transform="translate(-780.000000, -500.000000)">
            <g id="Group-8" transform="translate(740.000000, 460.000000)">
                <g id="blog" transform="translate(40.000000, 40.000000)">
                    <path d="M15.055223,-5.61235357e-16 L20.944777,5.61235357e-16 C25.9001836,-3.49058064e-16 27.9055187,0.556953667 29.8610742,1.60279622 C31.8166298,2.64863878 33.3513612,4.18337022 34.3972038,6.13892578 C35.4430463,8.09448133 36,10.0998164 36,15.055223 L36,20.944777 C36,25.9001836 35.4430463,27.9055187 34.3972038,29.8610742 C33.3513612,31.8166298 31.8166298,33.3513612 29.8610742,34.3972038 C27.9055187,35.4430463 25.9001836,36 20.944777,36 L15.055223,36 C10.0998164,36 8.09448133,35.4430463 6.13892578,34.3972038 C4.18337022,33.3513612 2.64863878,31.8166298 1.60279622,29.8610742 C0.556953667,27.9055187 2.32705376e-16,25.9001836 -3.74156905e-16,20.944777 L3.74156905e-16,15.055223 C-2.32705376e-16,10.0998164 0.556953667,8.09448133 1.60279622,6.13892578 C2.64863878,4.18337022 4.18337022,2.64863878 6.13892578,1.60279622 C8.09448133,0.556953667 10.0998164,3.49058064e-16 15.055223,-5.61235357e-16 Z" id="Rectangle" fill="#002CFC"></path>
                    <g id="quote-close-alt" transform="translate(10.714286, 8.714286)" fill="#FAFBFC" fill-rule="nonzero">
                        <path d="M6.78571429,0 C3.03753247,0 0,2.85767857 0,6.38392857 C0,9.91017857 3.03753247,12.7678571 6.78571429,12.7678571 C8.42662338,12.7678571 9.93058442,12.22 11.1038961,11.3088393 L11.1038961,12.7678571 C11.1038961,14.6876786 9.44324675,16.25 7.4025974,16.25 L6.16883117,16.25 C5.48655844,16.25 4.93506494,16.77 4.93506494,17.4107143 C4.93506494,18.0514286 5.48655844,18.5714286 6.16883117,18.5714286 L7.4025974,18.5714286 C10.8040909,18.5714286 13.5714286,15.9679464 13.5714286,12.7678571 L13.5714286,6.38392857 C13.5714286,2.85767857 10.5338961,0 6.78571429,0 Z" id="Shape"></path>
                    </g>
                </g>
            </g>
        </g>
    </g>
</svg>