<?xml version="1.0" encoding="UTF-8"?>
<svg width="36px" height="36px" viewBox="0 0 36 36" version="1.1" xmlns="http://www.w3.org/2000/svg" xmlns:xlink="http://www.w3.org/1999/xlink">
    <title>press-kit</title>
    <g id="Website" stroke="none" stroke-width="1" fill="none" fill-rule="evenodd">
        <g id="Homepage-Detail" transform="translate(-172.000000, -2065.000000)" fill="#00DDB3">
            <g id="Group-9" transform="translate(132.000000, 594.000000)">
                <g id="Press-Kit" transform="translate(0.000000, 1437.000000)">
                    <g id="Group-12" transform="translate(40.000000, 34.000000)">
                        <path d="M20.2699323,5.01505304e-16 C24.9425808,-3.56846303e-16 27.2309786,0.603366472 29.3494971,1.73636257 C31.4680156,2.86935868 33.1306413,4.53198441 34.2636374,6.65050293 C35.3966335,8.76902145 36,11.0574192 36,15.7300677 L36,20.2699323 C36,24.9425808 35.3966335,27.2309786 34.2636374,29.3494971 C33.1306413,31.4680156 31.4680156,33.1306413 29.3494971,34.2636374 C27.2309786,35.3966335 24.9425808,36 20.2699323,36 L15.7300677,36 C11.0574192,36 8.76902145,35.3966335 6.65050293,34.2636374 C4.53198441,33.1306413 2.86935868,31.4680156 1.73636257,29.3494971 C0.603366472,27.2309786 2.37897535e-16,24.9425808 -3.34336869e-16,20.2699323 L3.34336869e-16,15.7300677 C-2.37897535e-16,11.0574192 0.603366472,8.76902145 1.73636257,6.65050293 C2.86935868,4.53198441 4.53198441,2.86935868 6.65050293,1.73636257 C8.76902145,0.603366472 11.0574192,3.56846303e-16 15.7300677,-5.01505304e-16 L20.2699323,5.01505304e-16 Z M18.25,9.66666667 C13.8777457,9.66666667 10.3333333,13.2110791 10.3333333,17.5833333 C10.3333333,18.759381 10.5897719,19.8755342 11.0497825,20.8789266 L9.5,25.9166667 L14.2950836,24.4428664 C15.4587473,25.1152346 16.8094403,25.5 18.25,25.5 C22.6222543,25.5 26.1666667,21.9555876 26.1666667,17.5833333 C26.1666667,13.2110791 22.6222543,9.66666667 18.25,9.66666667 Z" id="press-kit"></path>
                    </g>
                </g>
            </g>
        </g>
    </g>
</svg>