<?xml version="1.0" encoding="UTF-8"?>
<svg width="36px" height="36px" viewBox="0 0 36 36" version="1.1" xmlns="http://www.w3.org/2000/svg" xmlns:xlink="http://www.w3.org/1999/xlink">
    <title>related</title>
    <g id="Website" stroke="none" stroke-width="1" fill="none" fill-rule="evenodd">
        <g id="Homepage-Detail" transform="translate(-622.000000, -1602.000000)">
            <g id="Hero" transform="translate(133.000000, 166.000000)">
                <g id="Comença" transform="translate(449.000000, 1396.000000)">
                    <g id="related" transform="translate(40.000000, 40.000000)">
                        <path d="M15.055223,-5.61235357e-16 L20.944777,5.61235357e-16 C25.9001836,-3.49058064e-16 27.9055187,0.556953667 29.8610742,1.60279622 C31.8166298,2.64863878 33.3513612,4.18337022 34.3972038,6.13892578 C35.4430463,8.09448133 36,10.0998164 36,15.055223 L36,20.944777 C36,25.9001836 35.4430463,27.9055187 34.3972038,29.8610742 C33.3513612,31.8166298 31.8166298,33.3513612 29.8610742,34.3972038 C27.9055187,35.4430463 25.9001836,36 20.944777,36 L15.055223,36 C10.0998164,36 8.09448133,35.4430463 6.13892578,34.3972038 C4.18337022,33.3513612 2.64863878,31.8166298 1.60279622,29.8610742 C0.556953667,27.9055187 2.32705376e-16,25.9001836 -3.74156905e-16,20.944777 L3.74156905e-16,15.055223 C-2.32705376e-16,10.0998164 0.556953667,8.09448133 1.60279622,6.13892578 C2.64863878,4.18337022 4.18337022,2.64863878 6.13892578,1.60279622 C8.09448133,0.556953667 10.0998164,3.49058064e-16 15.055223,-5.61235357e-16 Z" id="Rectangle" fill="#32C5FF"></path>
                        <g id="lightbulb" transform="translate(6.000000, 6.000000)" fill="#F0F5F7" fill-rule="nonzero">
                            <path d="M11.2011508,2.04416667 C8.12288643,2.3825 5.56349952,4.79583333 5.0874973,7.83166667 C4.72874563,10.12 5.49962422,12.2358333 6.92938088,13.725 C7.7930099,14.6233333 8.32063735,15.7775 8.459763,17.0008333 L15.540296,17.0008333 C15.6750466,15.7875 16.186049,14.6366667 17.045303,13.7516667 C18.2554336,12.5041667 19.0000621,10.8116667 19.0000621,8.94416667 C19.0000621,4.8475 15.4247954,1.58 11.2011508,2.04416667 Z M8.50001319,20.3333333 C8.50001319,21.2533333 9.28314183,22 10.2500213,22 L13.7500376,22 C14.7169171,22 15.5000458,21.2533333 15.5000458,20.3333333 L15.5000458,18.6666667 L8.50001319,18.6666667 L8.50001319,20.3333333 Z" id="Shape"></path>
                        </g>
                    </g>
                </g>
            </g>
        </g>
    </g>
</svg>