<?xml version="1.0" encoding="UTF-8"?>
<svg width="36px" height="36px" viewBox="0 0 36 36" version="1.1" xmlns="http://www.w3.org/2000/svg" xmlns:xlink="http://www.w3.org/1999/xlink">
    <title>share</title>
    <g id="Website" stroke="none" stroke-width="1" fill="none" fill-rule="evenodd">
        <g id="Homepage-Detail" transform="translate(-172.000000, -1255.000000)" fill="#002CFC">
            <g id="Group-9" transform="translate(132.000000, 594.000000)">
                <g id="Safareig" transform="translate(0.000000, 627.000000)">
                    <g id="Group-12" transform="translate(40.000000, 34.000000)">
                        <path d="M20.2699323,5.01505304e-16 C24.9425808,-3.56846303e-16 27.2309786,0.603366472 29.3494971,1.73636257 C31.4680156,2.86935868 33.1306413,4.53198441 34.2636374,6.65050293 C35.3966335,8.76902145 36,11.0574192 36,15.7300677 L36,20.2699323 C36,24.9425808 35.3966335,27.2309786 34.2636374,29.3494971 C33.1306413,31.4680156 31.4680156,33.1306413 29.3494971,34.2636374 C27.2309786,35.3966335 24.9425808,36 20.2699323,36 L15.7300677,36 C11.0574192,36 8.76902145,35.3966335 6.65050293,34.2636374 C4.53198441,33.1306413 2.86935868,31.4680156 1.73636257,29.3494971 C0.603366472,27.2309786 2.37897535e-16,24.9425808 -3.34336869e-16,20.2699323 L3.34336869e-16,15.7300677 C-2.37897535e-16,11.0574192 0.603366472,8.76902145 1.73636257,6.65050293 C2.86935868,4.53198441 4.53198441,2.86935868 6.65050293,1.73636257 C8.76902145,0.603366472 11.0574192,3.56846303e-16 15.7300677,-5.01505304e-16 L20.2699323,5.01505304e-16 Z M18.2894531,9.5 C16.0160156,9.5 14.2503906,9.98828125 12.9925781,10.9648438 C11.8128906,11.8710938 11.2230469,13.0742188 11.2230469,14.5742188 C11.2230469,15.5039062 11.4925781,16.3125 12.0316406,17 C12.6488281,17.7421875 13.6449219,18.3359375 15.0199219,18.78125 C15.4261719,18.9140625 15.9613281,19.0664062 16.6253906,19.2382812 C17.3441406,19.4335938 17.8089844,19.5625 18.0199219,19.625 C19.5121094,19.90625 20.2582031,20.2148438 20.2582031,20.5507812 C20.2582031,21.1835938 19.7582031,21.5 18.7582031,21.5 C17.4925781,21.5 16.5160156,21.2265625 15.8285156,20.6796875 C15.1410156,20.125 14.4808594,19.8476562 13.8480469,19.8476562 C12.1214844,19.8476562 11.2582031,20.5585938 11.2582031,21.9804688 C11.2582031,22.9179688 11.8207031,23.7929688 12.9457031,24.6054688 C14.2269531,25.5351562 15.8207031,26 17.7269531,26 C20.0003906,26 21.7660156,25.4765625 23.0238281,24.4296875 C24.2035156,23.453125 24.7933594,22.1601562 24.7933594,20.5507812 C24.7933594,19.5273438 24.5199219,18.6289062 23.9730469,17.8554688 C23.7855469,17.6523438 23.5980469,17.4804688 23.4105469,17.3398438 C23.2230469,17.1992188 22.9574219,17.0351562 22.6136719,16.8476562 C22.2699219,16.6523438 21.7308594,16.4414062 20.9964844,16.2148438 C20.6482701,16.1143973 20.2053492,15.9967315 19.6677216,15.8618463 L19.1830078,15.7408203 C18.5818359,15.5896484 18.1863281,15.4859375 17.9964844,15.4296875 C16.5042969,15.1953125 15.7582031,14.921875 15.7582031,14.609375 C15.7582031,14.015625 16.2582031,13.7070312 17.2582031,13.6835938 C18.5238281,13.6835938 19.5003906,13.9414062 20.1878906,14.4570312 C20.8753906,14.9726562 21.5355469,15.2304688 22.1683594,15.2304688 C23.8949219,15.2304688 24.7582031,14.5664062 24.7582031,13.2382812 C24.7582031,12.3710938 24.1957031,11.5585938 23.0707031,10.8007812 C21.7894531,9.93359375 20.1957031,9.5 18.2894531,9.5 Z" id="share"></path>
                    </g>
                </g>
            </g>
        </g>
    </g>
</svg>