<svg width="36" height="36" viewBox="0 0 36 36" fill="none" xmlns="http://www.w3.org/2000/svg">
<circle cx="18" cy="18" r="18" fill="#002CFC"/>
<path d="M22.6074 17.8477C22.9512 18.0352 23.2168 18.1992 23.4043 18.3398C23.5918 18.4805 23.7793 18.6523 23.9668 18.8555C24.5137 19.6289 24.7871 20.5273 24.7871 21.5508C24.7871 23.1602 24.1973 24.4531 23.0176 25.4297C21.7598 26.4766 19.9941 27 17.7207 27C15.8145 27 14.2207 26.5352 12.9395 25.6055C11.8145 24.793 11.252 23.918 11.252 22.9805C11.252 21.5586 12.1152 20.8477 13.8418 20.8477C14.4746 20.8477 15.1348 21.125 15.8223 21.6797C16.5098 22.2266 17.4863 22.5 18.752 22.5C19.752 22.5 20.252 22.1836 20.252 21.5508C20.252 21.2148 19.5059 20.9062 18.0137 20.625C17.8027 20.5625 17.3379 20.4336 16.6191 20.2383C15.9551 20.0664 15.4199 19.9141 15.0137 19.7812C13.6387 19.3359 12.6426 18.7422 12.0254 18C11.4863 17.3125 11.2168 16.5039 11.2168 15.5742C11.2168 14.0742 11.8066 12.8711 12.9863 11.9648C14.2441 10.9883 16.0098 10.5 18.2832 10.5C20.1895 10.5 21.7832 10.9336 23.0645 11.8008C24.1895 12.5586 24.752 13.3711 24.752 14.2383C24.752 15.5664 23.8887 16.2305 22.1621 16.2305C21.5293 16.2305 20.8691 15.9727 20.1816 15.457C19.4941 14.9414 18.5176 14.6836 17.252 14.6836C16.252 14.707 15.752 15.0156 15.752 15.6094C15.752 15.9219 16.498 16.1953 17.9902 16.4297C18.2012 16.4922 18.666 16.6133 19.3848 16.793C20.0488 16.957 20.584 17.0977 20.9902 17.2148C21.7246 17.4414 22.2637 17.6523 22.6074 17.8477Z" fill="white"/>
</svg>
