<?xml version="1.0" encoding="UTF-8"?>
<svg width="36px" height="36px" viewBox="0 0 36 36" version="1.1" xmlns="http://www.w3.org/2000/svg" xmlns:xlink="http://www.w3.org/1999/xlink">
    <title>start-here</title>
    <g id="Website" stroke="none" stroke-width="1" fill="none" fill-rule="evenodd">
        <g id="Homepage-Detail" transform="translate(-603.000000, -628.000000)" fill="#F7B500">
            <g id="Group-9" transform="translate(132.000000, 594.000000)">
                <g id="Comença" transform="translate(431.000000, 0.000000)">
                    <g id="Circle" transform="translate(40.000000, 34.000000)">
                        <path d="M20.2699323,5.01505304e-16 C24.9425808,-3.56846303e-16 27.2309786,0.603366472 29.3494971,1.73636257 C31.4680156,2.86935868 33.1306413,4.53198441 34.2636374,6.65050293 C35.3966335,8.76902145 36,11.0574192 36,15.7300677 L36,20.2699323 C36,24.9425808 35.3966335,27.2309786 34.2636374,29.3494971 C33.1306413,31.4680156 31.4680156,33.1306413 29.3494971,34.2636374 C27.2309786,35.3966335 24.9425808,36 20.2699323,36 L15.7300677,36 C11.0574192,36 8.76902145,35.3966335 6.65050293,34.2636374 C4.53198441,33.1306413 2.86935868,31.4680156 1.73636257,29.3494971 C0.603366472,27.2309786 2.37897535e-16,24.9425808 -3.34336869e-16,20.2699323 L3.34336869e-16,15.7300677 C-2.37897535e-16,11.0574192 0.603366472,8.76902145 1.73636257,6.65050293 C2.86935868,4.53198441 4.53198441,2.86935868 6.65050293,1.73636257 C8.76902145,0.603366472 11.0574192,3.56846303e-16 15.7300677,-5.01505304e-16 L20.2699323,5.01505304e-16 Z M23.4129197,10 L15.6301034,10 C15.2450653,10 14.8942278,10.2210639 14.7280422,10.5683918 L10.68498,19.0183918 C10.4466094,19.5165864 10.6572383,20.1136905 11.155433,20.3520612 C11.2901816,20.4165342 11.4376626,20.45 11.5870412,20.45 L14.3940052,20.45 C14.94629,20.45 15.3940052,20.8977153 15.3940052,21.45 C15.3940052,21.5546139 15.3775897,21.65858 15.3453577,21.7581047 L14.054005,25.7454885 C13.8838434,26.270906 14.1718353,26.8347841 14.6972527,27.0049456 C15.0218246,27.1100614 15.3775906,27.0424504 15.6409745,26.8255977 L25.8477678,18.4220045 C26.2741341,18.0709629 26.3351969,17.4407493 25.9841553,17.014383 C25.7941977,16.7836652 25.5110061,16.65 25.2121507,16.65 L23.4050803,16.65 C22.8527956,16.65 22.4050803,16.2022847 22.4050803,15.65 C22.4050803,15.5006139 22.4385495,15.3531257 22.5030288,15.2183717 L24.3149712,11.4316283 C24.553353,10.933439 24.3427373,10.3363302 23.844548,10.0979484 C23.709794,10.0334692 23.5623058,10 23.4129197,10 Z" id="start-here"></path>
                    </g>
                </g>
            </g>
        </g>
    </g>
</svg>