<svg width="36" height="36" viewBox="0 0 36 36" fill="none" xmlns="http://www.w3.org/2000/svg">
<circle cx="18" cy="18" r="18" fill="#F7B500"/>
<path d="M25.8478 18.422C26.5721 17.8256 26.1504 16.65 25.2122 16.65H23.4051C22.6693 16.65 22.1854 15.8821 22.503 15.2184L24.315 11.4316C24.6326 10.7679 24.1487 10 23.4129 10H15.6301C15.2451 10 14.8942 10.2211 14.728 10.5684L10.685 19.0184C10.3674 19.6821 10.8512 20.45 11.587 20.45H14.394C15.073 20.45 15.5545 21.1122 15.3454 21.7581L14.054 25.7455C13.7461 26.6962 14.8695 27.4608 15.641 26.8256L25.8478 18.422Z" fill="white"/>
</svg>
