<?xml version="1.0" encoding="UTF-8"?>
<svg width="32px" height="32px" viewBox="0 0 32 32" version="1.1" xmlns="http://www.w3.org/2000/svg" xmlns:xlink="http://www.w3.org/1999/xlink">
    <title>subscribe</title>
    <g id="Assets" stroke="none" stroke-width="1" fill="none" fill-rule="evenodd">
        <g id="Homepage" transform="translate(-152.000000, -630.000000)" fill="#F0F5F7">
            <g id="Subscriu" transform="translate(110.000000, 594.000000)">
                <g id="Group-8" transform="translate(42.000000, 36.000000)">
                    <path d="M17.6995,8.29456362 L18.9242234,10.6687496 C19.2219667,11.2459396 19.7814363,11.6426161 20.4246365,11.7325763 L23.2770371,12.1315228 C24.2565833,12.2685255 24.9395998,13.1736673 24.8025971,14.1532134 C24.7456836,14.5601356 24.5505767,14.9351124 24.25,15.2152524 L22.2973191,17.0351674 C21.8002802,17.4984118 21.5724195,18.1823143 21.692292,18.8510994 L22.149,21.3991377 C22.3282,22.39892 21.6629867,23.354674 20.6632045,23.5338741 C20.2714716,23.6040879 19.8675324,23.5453373 19.5120309,23.3664428 L16.8990229,22.0515313 C16.33346,21.7669302 15.66654,21.7669302 15.1009771,22.0515313 L12.4879691,23.3664428 C11.5806566,23.8230183 10.4750069,23.4576238 10.0184313,22.5503113 C9.83953671,22.1948098 9.78078617,21.7908706 9.851,21.3991377 L10.307708,18.8510994 C10.4275805,18.1823143 10.1997198,17.4984118 9.70268091,17.0351674 L7.75,15.2152524 C7.0264494,14.5408971 6.98656868,13.4076705 7.66092393,12.6841199 C7.94106393,12.3835432 8.31604073,12.1884364 8.72296286,12.1315228 L11.5753635,11.7325763 C12.2185637,11.6426161 12.7780333,11.2459396 13.0757766,10.6687496 L14.3005,8.29456362 C14.7846807,7.35595568 15.9380788,6.98756964 16.8766867,7.47175036 C17.2297718,7.6538892 17.5173612,7.94147859 17.6995,8.29456362 Z" id="Path"></path>
                </g>
            </g>
        </g>
    </g>
</svg>