<?xml version="1.0" encoding="UTF-8"?>
<svg width="36px" height="36px" viewBox="0 0 36 36" version="1.1" xmlns="http://www.w3.org/2000/svg" xmlns:xlink="http://www.w3.org/1999/xlink">
    <title>subscribe</title>
    <g id="Website" stroke="none" stroke-width="1" fill="none" fill-rule="evenodd">
        <g id="Homepage-Detail" transform="translate(-172.000000, -628.000000)" fill="#6236FF">
            <g id="Subscriu" transform="translate(132.000000, 594.000000)">
                <path d="M60.2699323,34 C64.9425808,34 67.2309786,34.6033665 69.3494971,35.7363626 C71.4680156,36.8693587 73.1306413,38.5319844 74.2636374,40.6505029 C75.3966335,42.7690214 76,45.0574192 76,49.7300677 L76,54.2699323 C76,58.9425808 75.3966335,61.2309786 74.2636374,63.3494971 C73.1306413,65.4680156 71.4680156,67.1306413 69.3494971,68.2636374 C67.2309786,69.3966335 64.9425808,70 60.2699323,70 L55.7300677,70 C51.0574192,70 48.7690214,69.3966335 46.6505029,68.2636374 C44.5319844,67.1306413 42.8693587,65.4680156 41.7363626,63.3494971 C40.6033665,61.2309786 40,58.9425808 40,54.2699323 L40,49.7300677 C40,45.0574192 40.6033665,42.7690214 41.7363626,40.6505029 C42.8693587,38.5319844 44.5319844,36.8693587 46.6505029,35.7363626 C48.7690214,34.6033665 51.0574192,34 55.7300677,34 L60.2699323,34 Z M58.8766867,43.4717504 C57.9380788,42.9875696 56.7846807,43.3559557 56.3005,44.2945636 L56.3005,44.2945636 L55.0757766,46.6687496 C54.7780333,47.2459396 54.2185637,47.6426161 53.5753635,47.7325763 L53.5753635,47.7325763 L50.7229629,48.1315228 C50.3160407,48.1884364 49.9410639,48.3835432 49.6609239,48.6841199 C48.9865687,49.4076705 49.0264494,50.5408971 49.75,51.2152524 L49.75,51.2152524 L51.7026809,53.0351674 C52.1997198,53.4984118 52.4275805,54.1823143 52.307708,54.8510994 L52.307708,54.8510994 L51.851,57.3991377 C51.7807862,57.7908706 51.8395367,58.1948098 52.0184313,58.5503113 C52.4750069,59.4576238 53.5806566,59.8230183 54.4879691,59.3664428 L54.4879691,59.3664428 L57.1009771,58.0515313 C57.66654,57.7669302 58.33346,57.7669302 58.8990229,58.0515313 L58.8990229,58.0515313 L61.5120309,59.3664428 C61.8675324,59.5453373 62.2714716,59.6040879 62.6632045,59.5338741 C63.6629867,59.354674 64.3282,58.39892 64.149,57.3991377 L64.149,57.3991377 L63.692292,54.8510994 C63.5724195,54.1823143 63.8002802,53.4984118 64.2973191,53.0351674 L64.2973191,53.0351674 L66.25,51.2152524 C66.5505767,50.9351124 66.7456836,50.5601356 66.8025971,50.1532134 C66.9395998,49.1736673 66.2565833,48.2685255 65.2770371,48.1315228 L65.2770371,48.1315228 L62.4246365,47.7325763 C61.7814363,47.6426161 61.2219667,47.2459396 60.9242234,46.6687496 L60.9242234,46.6687496 L59.6995,44.2945636 C59.5173612,43.9414786 59.2297718,43.6538892 58.8766867,43.4717504 Z" id="subscribe"></path>
            </g>
        </g>
    </g>
</svg>