<svg width="36" height="36" viewBox="0 0 36 36" fill="none" xmlns="http://www.w3.org/2000/svg">
<path fill-rule="evenodd" clip-rule="evenodd" d="M18 36C27.9411 36 36 27.9411 36 18C36 8.05887 27.9411 0 18 0C8.05887 0 0 8.05887 0 18C0 27.9411 8.05887 36 18 36ZM20.9242 12.6687L19.7774 10.4457C19.0325 9.00152 16.9675 9.00152 16.2226 10.4457L15.0758 12.6687C14.778 13.2459 14.2186 13.6426 13.5754 13.7326L11.1577 14.0707C9.49048 14.3039 8.83962 16.3668 10.0711 17.5145L11.7027 19.0352C12.1997 19.4984 12.4276 20.1823 12.3077 20.8511L11.9078 23.0824C11.617 24.7047 13.3032 25.9627 14.7754 25.2218L17.101 24.0515C17.6665 23.7669 18.3335 23.7669 18.899 24.0515L21.2246 25.2218C22.6968 25.9627 24.383 24.7047 24.0922 23.0824L23.6923 20.8511C23.5724 20.1823 23.8003 19.4984 24.2973 19.0352L25.9289 17.5145C27.1604 16.3668 26.5095 14.3039 24.8423 14.0707L22.4246 13.7326C21.7814 13.6426 21.222 13.2459 20.9242 12.6687Z" fill="#6236FF"/>
</svg>
