<svg width="36" height="36" viewBox="0 0 36 36" fill="none" xmlns="http://www.w3.org/2000/svg">
<path fill-rule="evenodd" clip-rule="evenodd" d="M18 36C27.9411 36 36 27.9411 36 18C36 8.05887 27.9411 0 18 0C8.05887 0 0 8.05887 0 18C0 27.9411 8.05887 36 18 36ZM21.8129 12.2103L20.6662 9.98721C19.5487 7.821 16.4513 7.821 15.3338 9.98721L14.1871 12.2103C14.0382 12.4989 13.7584 12.6972 13.4368 12.7422L11.0192 13.0804C8.51838 13.4301 7.54208 16.5244 9.3893 18.2461L11.0209 19.7667C11.2694 19.9983 11.3833 20.3403 11.3234 20.6747L10.9235 22.906C10.4873 25.3394 13.0166 27.2264 15.2249 26.1151L17.5505 24.9448C17.8333 24.8025 18.1667 24.8025 18.4495 24.9448L20.7751 26.1151C22.9834 27.2264 25.5127 25.3394 25.0765 22.906L24.6766 20.6747C24.6167 20.3403 24.7306 19.9983 24.9791 19.7667L26.6107 18.2461C28.4579 16.5244 27.4816 13.4301 24.9808 13.0804L22.5632 12.7422C22.2416 12.6972 21.9618 12.4989 21.8129 12.2103ZM17.1113 10.9041C17.4838 10.182 18.5162 10.182 18.8887 10.9041L20.0355 13.1272C20.4821 13.993 21.3213 14.588 22.2861 14.7229L24.7038 15.0611C25.5374 15.1777 25.8628 16.2091 25.2471 16.783L23.6155 18.3036C22.87 18.9985 22.5282 20.0243 22.708 21.0275L23.1079 23.2588C23.2533 24.07 22.4102 24.6989 21.6741 24.3285L19.3485 23.1583C18.5002 22.7314 17.4998 22.7314 16.6515 23.1583L14.3259 24.3285C13.5898 24.6989 12.7467 24.07 12.8921 23.2588L13.292 21.0275C13.4718 20.0243 13.13 18.9985 12.3845 18.3036L10.7529 16.783C10.1372 16.2091 10.4626 15.1777 11.2962 15.0611L13.7139 14.7229C14.6787 14.588 15.5179 13.993 15.9645 13.1272L17.1113 10.9041Z" fill="#6236FF"/>
</svg>
